<svg id="Layer_1" data-name="Layer 1" xmlns="http://www.w3.org/2000/svg" viewBox="0 0 364.43 101.11"><defs><style>.cls-1{fill:#222;}</style></defs><title>keuda-logo-2018</title><path class="cls-1" d="M55.41,71.08c2.08,2.62,4.45,5.63,6.83,8.62l29.14,36.6c.73.92,1.69,1.79.85,3.58-4.81.34-9.8.1-15.1.12L44.07,76.29H39c-.34,2.46-.7,4.88-1,7.31Q36,100,34,116.44c-.37,3.06-.88,3.57-3.9,3.59-2.24,0-4.48,0-6.72,0a2.7,2.7,0,0,1-2.94-1.73c3.84-31.25,7.74-63,11.66-95a6.73,6.73,0,0,1,2-.77c3.35-.08,6.71,0,9.75,0,1.57.85,1.37,2,1.24,3.13Q44,34.95,42.91,44.23q-1.15,9.51-2.29,19c0,.37,0,.76,0,1.28h5.25a7.37,7.37,0,0,1,1-1.35Q64.19,45.77,81.56,28.35c1.52-1.53,2.94-3.16,4.54-4.61a4.18,4.18,0,0,1,2.48-1.16c3.92,0,7.83.07,11.75.19a10.44,10.44,0,0,1,2.13.64A17.4,17.4,0,0,1,100.72,26c-12.29,12-24.64,24-36.9,36C61,64.78,58.38,67.84,55.41,71.08Z" transform="translate(-20.46 -20.77)"/><path class="cls-1" d="M302,51.29c-.8-9.48,1.29-18.55,2.21-27.81,3.55-1.59,7.24-1.86,10.78-2.7.44-.1,1,.27,1.56.44a26.38,26.38,0,0,1,0,3Q314.26,43.11,311.9,62q-2.29,18.56-4.61,37.11c-.47,3.72-1,7.44-1.41,11.17a8.76,8.76,0,0,1-6.52,7.79,78.52,78.52,0,0,1-10.68,2.63,71.2,71.2,0,0,1-23.62.21,37,37,0,0,1-4.88-1.22c-7.19-2.3-11.38-7.36-12.44-14.68a67.87,67.87,0,0,1-.49-13.37,83,83,0,0,1,4.59-23.92c4-11.2,12.11-17,23.75-18.36A74.38,74.38,0,0,1,300.34,51C300.79,51.11,301.25,51.16,302,51.29Zm-2.34,9.5a7.06,7.06,0,0,0-.9-.42,62.11,62.11,0,0,0-20.19-1.7c-7.51.61-12.32,4.7-14.79,11.72-.21.6-.46,1.19-.65,1.8A78.75,78.75,0,0,0,260,96.78a34.09,34.09,0,0,0,1.21,7.77,8.93,8.93,0,0,0,7.11,6.73,48.63,48.63,0,0,0,9.25,1A56.66,56.66,0,0,0,293.67,110Q296.69,85.25,299.67,60.79Z" transform="translate(-20.46 -20.77)"/><path class="cls-1" d="M371.53,74.75c.28-2.88.64-5.8.81-8.74a5.18,5.18,0,0,0-3.88-5.66,31.44,31.44,0,0,0-6.8-1.24c-8.13-.58-16.09.66-24,2.51-2,.47-4,.87-6,1.28-1.19-1.52-1.78-6.21-1.19-9.42a24.43,24.43,0,0,1,2.91-1.06c11.57-2.78,23.26-4.31,35.16-3a36,36,0,0,1,8.13,1.88c5.82,2.08,8.51,6.18,8.13,12.37-.29,4.62-.89,9.22-1.45,13.82q-1.8,14.87-3.7,29.73c-.13,1-.34,2-.55,3.06a10.23,10.23,0,0,1-7.24,8.17,72,72,0,0,1-19.09,3.18,63.14,63.14,0,0,1-18.35-1.24,24,24,0,0,1-6-2.35,14,14,0,0,1-7.33-11.18,30.85,30.85,0,0,1,2.22-15.73c1.8-4.26,4.78-7.52,9.15-8.94a92.86,92.86,0,0,1,12.79-3c8.25-1.46,16.55-2.69,24.83-4A12.93,12.93,0,0,0,371.53,74.75Zm-1.36,9.92a4.38,4.38,0,0,0-1-.18q-12.9,2.08-25.78,4.18c-5.21.86-8.18,4-9.12,9.14a21.34,21.34,0,0,0-.32,3.57c-.07,5.89,2.62,9.26,8.39,10.44a50.85,50.85,0,0,0,16.47.15c2.73-.34,5.43-1,8.11-1.54C368.06,101.59,369.12,93.15,370.17,84.67Z" transform="translate(-20.46 -20.77)"/><path class="cls-1" d="M114.31,94.08c-1.59,8,2.16,14.47,9.64,16.8,6,1.87,12.15,1.75,18.27.66,3.53-.63,7-1.59,10.5-2.38.9-.2,1.83-.27,3.07-.46.54,2.86,1,5.47,1.54,8.19a17.41,17.41,0,0,1-2.38,1.16c-11.22,3.44-22.64,4.85-34.28,2.79-6.24-1.11-11.7-3.75-15.28-9.35a23.86,23.86,0,0,1-3.52-10.59,68.93,68.93,0,0,1,5.18-35.16c3.66-8.38,10-13.45,18.87-15.46a51.38,51.38,0,0,1,24,0c8.75,2.17,13.48,7.8,14.12,16.83a43.1,43.1,0,0,1-.41,9.29c-.83,5.81-4.15,9.91-9.47,12.38s-10.84,3.3-16.5,3.75c-6.92.56-13.87.85-20.8,1.26C116,93.87,115.11,94,114.31,94.08Zm.5-9.28a6.44,6.44,0,0,0,1.13.17c6.38-.37,12.77-.6,19.13-1.19a49.06,49.06,0,0,0,9.58-2,9.27,9.27,0,0,0,6.85-8.38,20.48,20.48,0,0,0,0-5c-.57-4.32-2.87-7.49-7.08-8.82a26.75,26.75,0,0,0-7.27-1.23c-9.25-.25-16.2,3.4-19.76,13.09A49.48,49.48,0,0,0,114.81,84.8Z" transform="translate(-20.46 -20.77)"/><path class="cls-1" d="M225.81,51.06c3.53-.74,6.71-1.47,9.91-2.05,1.53-.28,2.32.66,2.12,2.34-.62,5.4-1.29,10.8-1.94,16.19-1,8.65-2,17.3-3.17,25.94a73.34,73.34,0,0,1-1.94,10.09c-2.44,8.64-8.17,14.11-16.81,16.42a55,55,0,0,1-27.06.37c-8.78-2.06-13.53-7.91-13.61-17A122.81,122.81,0,0,1,174.4,88.8c1.14-10.32,2.44-20.63,3.67-30.94.17-1.43.37-2.86.51-4.29A2.8,2.8,0,0,1,181,50.76c2.58-.51,5.14-1.14,7.73-1.65,1.89-.38,2.76.41,2.54,2.31-.63,5.31-1.32,10.62-2,15.94C188,77.91,186.73,88.45,185.52,99a17.15,17.15,0,0,0,.27,5,8.32,8.32,0,0,0,5.65,6.88,28.8,28.8,0,0,0,20.38-.5,11.42,11.42,0,0,0,7-8.35,115.22,115.22,0,0,0,1.95-11.56c1.29-9.9,2.48-19.82,3.71-29.73.24-1.91.41-3.82.67-5.72C225.27,53.79,225.54,52.56,225.81,51.06Z" transform="translate(-20.46 -20.77)"/></svg>